<svg xmlns="http://www.w3.org/2000/svg" viewBox="0 0 137.73 40"><title>PLOS_logo</title><path d="M33.27 8.57A2.86 2.86 0 1 0 31.38 5a2.87 2.87 0 0 0 1.89 3.58M40 22.8a1.43 1.43 0 1 0-1.79.94A1.44 1.44 0 0 0 40 22.8M24.57 2.79A1.43 1.43 0 1 0 23.63 1a1.43 1.43 0 0 0 .94 1.79M4.84 27.58a1.43 1.43 0 1 0 .94 1.79 1.44 1.44 0 0 0-.94-1.79M29.76 34.22A1.86 1.86 0 1 0 31 36.54a1.86 1.86 0 0 0-1.22-2.32M11 6.17a2.29 2.29 0 1 0-2.82 1.51A2.29 2.29 0 0 0 11 6.17M15.9 35.53a2.29 2.29 0 1 0 1.5 2.86 2.28 2.28 0 0 0-1.5-2.86M2.23 13.43a1.71 1.71 0 1 0 1.13 2.15 1.72 1.72 0 0 0-1.13-2.15M31.62 12.69a13.65 13.65 0 0 0-8.21-6h-.06A14 14 0 0 0 20 6.28a13.72 13.72 0 1 0 11.63 6.41m-5.28 17.37a11.86 11.86 0 0 1-5.43 1.76 16.1 16.1 0 0 0 4.16-6c.38-.16.75-.33 1.12-.51s.73-.37 1.08-.57.7-.4 1-.62.59-.4.85-.6c.07.24.13.48.18.71s.1.58.13.85a6 6 0 0 1 0 .79 4.48 4.48 0 0 1-.06.69 3.49 3.49 0 0 1-.14.6c-.26.83-1.67 2.1-3 2.92M10 26.43c.15.08.29.17.45.24a8.86 8.86 0 0 0 .92.36c.31.1.64.2 1 .27s.44.09.67.13a11 11 0 0 0 .9 2.77A11.86 11.86 0 0 1 10 26.43m4.6-15.88a7 7 0 0 1 .77.07c.27 0 .55.09.83.16s.48.14.72.21a20.93 20.93 0 0 0-2.07 3.58 24.76 24.76 0 0 0-2.06 7.84 18.52 18.52 0 0 0 0 3.75h-.2c-.3-.07-.6-.16-.87-.24a7.79 7.79 0 0 1-.8-.32 5.9 5.9 0 0 1-.7-.37 3.92 3.92 0 0 1-.56-.39 4.35 4.35 0 0 1-.46-.42A3.94 3.94 0 0 1 8.51 23a11.76 11.76 0 0 1 3.21-11.44 3.85 3.85 0 0 1 2.89-1m15.47 3.11a12.65 12.65 0 0 1 1 1.86 9.87 9.87 0 0 1 .34 1c.09.32.2.64.27 1a2.33 2.33 0 0 1-.07 1.27 5.93 5.93 0 0 1-.23.6 6.28 6.28 0 0 1-.34.62 7.54 7.54 0 0 1-.46.64c-.17.22-.36.43-.54.63l-.28.27c-.07-.16-.13-.32-.2-.48-.16-.34-.33-.67-.51-1s-.38-.66-.58-1-.43-.67-.66-1-.36-.49-.55-.73a17.65 17.65 0 0 0-.85-7.35 11.84 11.84 0 0 1 3.65 3.66m-10.58 17a3.4 3.4 0 0 1-2.4.86 3.11 3.11 0 0 1-2-1.73 9.11 9.11 0 0 1-.77-2.15h.18c.37 0 .74.05 1.12.06H16.76c.39 0 .79 0 1.17-.07s.8-.08 1.21-.14.8-.13 1.2-.21.8-.17 1.2-.27.72-.19 1.08-.3a12.26 12.26 0 0 1-3.13 4M14 22.54a23.55 23.55 0 0 1 2-7.44 19.48 19.48 0 0 1 2.14-3.65c.29.13.58.26.88.42s.66.35 1 .54.65.4 1 .61.64.45 1 .67.62.48.92.74.59.51.88.78.57.56.84.83.54.57.79.86v.21a26.21 26.21 0 0 1-1.77 7.45l-.25.57c-.31.12-.63.22-1 .32s-.76.22-1.14.32l-1.14.26-1.15.2c-.38.05-.75.1-1.14.13s-.74.07-1.12.08-.72 0-1.08 0-.7 0-1.05-.05l-.5-.06a17.45 17.45 0 0 1 0-3.84M27 19c.14.2.28.4.4.61s.38.63.55.94.33.61.48.93.23.53.34.79l-.22.18c-.27.2-.57.41-.89.62s-.63.39-1 .58-.66.36-1 .53A28.08 28.08 0 0 0 27 19M23 8.49a2.79 2.79 0 0 1 1.57 1.62 13 13 0 0 1 .91 5.13c-.29-.29-.58-.58-.88-.86s-.61-.56-.93-.82-.64-.53-1-.79-.66-.48-1-.71-.68-.45-1-.65-.7-.4-1.05-.58-.41-.2-.62-.29a10.33 10.33 0 0 1 1.43-1.28 3.55 3.55 0 0 1 2.53-.75h.07m-3.36-.31a11.31 11.31 0 0 0-2 1.8l-.25-.09c-.33-.11-.66-.21-1-.29s-.64-.14-.93-.18a6.33 6.33 0 0 0-.8-.07 11.75 11.75 0 0 1 5-1.23l-.13.07m11 16.75c0-.31-.08-.64-.15-1s-.15-.64-.25-1c0-.1-.07-.2-.1-.3.23-.21.46-.43.68-.65s.44-.48.62-.72.26-.36.38-.53a12.09 12.09 0 0 1-1.18 4.42v-.26"/><path d="M17.44 21.41A1.43 1.43 0 1 0 16 20a1.43 1.43 0 0 0 1.43 1.43M100.54 6a13.93 13.93 0 1 0 13.92 13.9A13.93 13.93 0 0 0 100.54 6zm0 22.1a8.17 8.17 0 1 1 8.17-8.17 8.17 8.17 0 0 1-8.17 8.14zM55.17 6.45H45.8a.58.58 0 0 0-.57.57v25.69a.58.58 0 0 0 .57.57h4.76a.58.58 0 0 0 .57-.57v-7.47h3.47c6 0 10.85-3.22 10.85-9.43v-.08c-.01-5.48-3.88-9.28-10.28-9.28zm4.29 9.47c0 2.3-1.73 4.06-4.68 4.06h-3.65v-8.2h3.55c3 0 4.79 1.42 4.79 4.06v.08zM117.61 30.23a.58.58 0 0 1-.06-.69M117.56 29.52L118 29zM117.71 30.32l-.12-.09z"/><path d="M129.22 17.23c-4.64-1.19-5.79-1.76-5.79-3.53v-.08c0-1.3 1.19-2.34 3.45-2.34a11.92 11.92 0 0 1 6.23 1.91.58.58 0 0 0 .8-.13l2.41-3.39a.57.57 0 0 0-.17-.74A15.57 15.57 0 0 0 127 6.07c-5.48 0-9.39 3.22-9.39 8.09v.08c0 5.33 3.49 6.82 8.89 8.2 4.48 1.15 5.41 1.92 5.41 3.41v.08c0 1.57-1.46 2.53-3.87 2.53a11.34 11.34 0 0 1-6.49-2.13l-.46-.33-.29-.2a.58.58 0 0 0-.8.14l-2.49 3.56a.58.58 0 0 0 .06.69l.12.09a17.13 17.13 0 0 0 10.19 3.35c5.79 0 9.85-3 9.85-8.32v-.04c0-4.67-3.07-6.63-8.51-8.04zM86.15 28.49v4.31-4.31zM85.59 27.92H75V7a.58.58 0 0 0-.57-.57H69.7a.57.57 0 0 0-.57.57v25.71a.57.57 0 0 0 .57.57h15.88a.57.57 0 0 0 .57-.53v-4.3a.57.57 0 0 0-.56-.53z"/></svg>