<svg id="Logo" xmlns="http://www.w3.org/2000/svg" viewBox="0 0 137.73 40"><title>PLOS_logo</title><path d="M33.27,8.57A2.86,2.86,0,1,0,31.38,5a2.87,2.87,0,0,0,1.89,3.58"/><path d="M40,22.8a1.43,1.43,0,1,0-1.79.94A1.44,1.44,0,0,0,40,22.8"/><path d="M24.57,2.79A1.43,1.43,0,1,0,23.63,1a1.43,1.43,0,0,0,.94,1.79"/><path d="M4.84,27.58a1.43,1.43,0,1,0,.94,1.79,1.44,1.44,0,0,0-.94-1.79"/><path d="M29.76,34.22A1.86,1.86,0,1,0,31,36.54a1.86,1.86,0,0,0-1.22-2.32"/><path d="M11,6.17A2.29,2.29,0,1,0,8.18,7.68,2.29,2.29,0,0,0,11,6.17"/><path d="M15.9,35.53a2.29,2.29,0,1,0,1.5,2.86,2.28,2.28,0,0,0-1.5-2.86"/><path d="M2.23,13.43a1.71,1.71,0,1,0,1.13,2.15,1.72,1.72,0,0,0-1.13-2.15"/><path d="M31.62,12.69a13.65,13.65,0,0,0-8.21-6l-0.06,0h0A14,14,0,0,0,20,6.28a13.72,13.72,0,1,0,11.63,6.41M26.35,30.06a11.86,11.86,0,0,1-5.43,1.76,16.1,16.1,0,0,0,4.16-6h0c0.38-.16.75-0.33,1.12-0.51s0.73-.37,1.08-0.57,0.7-.4,1-0.62,0.59-.4.85-0.6c0.07,0.24.13,0.48,0.18,0.71s0.1,0.58.13,0.85a6,6,0,0,1,0,.79,4.48,4.48,0,0,1-.06.69,3.49,3.49,0,0,1-.14.6c-0.26.83-1.67,2.1-3,2.92M10,26.43c0.15,0.08.29,0.17,0.45,0.24a8.86,8.86,0,0,0,.92.36c0.31,0.1.64,0.2,1,.27s0.44,0.09.67,0.13a11,11,0,0,0,.9,2.77A11.86,11.86,0,0,1,10,26.43M14.6,10.55a7,7,0,0,1,.77.07c0.27,0,.55.09,0.83,0.16s0.48,0.14.72,0.21a20.93,20.93,0,0,0-2.07,3.58,24.76,24.76,0,0,0-2.06,7.84,18.52,18.52,0,0,0,0,3.75l-0.2,0c-0.3-.07-0.6-0.16-0.87-0.24a7.79,7.79,0,0,1-.8-0.32,5.9,5.9,0,0,1-.7-0.37,3.92,3.92,0,0,1-.56-0.39,4.35,4.35,0,0,1-.46-0.42A3.94,3.94,0,0,1,8.51,23h0a11.76,11.76,0,0,1,3.21-11.44,3.85,3.85,0,0,1,2.89-1m15.47,3.11a12.65,12.65,0,0,1,1,1.86,9.87,9.87,0,0,1,.34,1c0.09,0.32.2,0.64,0.27,1a2.33,2.33,0,0,1-.07,1.27,5.93,5.93,0,0,1-.23.6,6.28,6.28,0,0,1-.34.62,7.54,7.54,0,0,1-.46.64c-0.17.22-.36,0.43-0.54,0.63l-0.28.27c-0.07-.16-0.13-0.32-0.2-0.48-0.16-.34-0.33-0.67-0.51-1s-0.38-.66-0.58-1-0.43-.67-0.66-1-0.36-.49-0.55-0.73A17.65,17.65,0,0,0,26.42,10a11.84,11.84,0,0,1,3.65,3.66m-10.58,17a3.4,3.4,0,0,1-2.4.86,3.11,3.11,0,0,1-2-1.73,9.11,9.11,0,0,1-.77-2.15l0.18,0c0.37,0,.74.05,1.12,0.06H16l0.76,0c0.39,0,.79,0,1.17-0.07s0.8-.08,1.21-0.14,0.8-.13,1.2-0.21,0.8-.17,1.2-0.27,0.72-.19,1.08-0.3a12.26,12.26,0,0,1-3.13,4M14,22.54A23.55,23.55,0,0,1,16,15.1a19.48,19.48,0,0,1,2.14-3.65c0.29,0.13.58,0.26,0.88,0.42s0.66,0.35,1,.54,0.65,0.4,1,.61,0.64,0.45,1,.67,0.62,0.48.92,0.74,0.59,0.51.88,0.78,0.57,0.56.84,0.83,0.54,0.57.79,0.86l0,0c0,0.07,0,.14,0,0.21a26.21,26.21,0,0,1-1.77,7.45l-0.25.57c-0.31.12-.63,0.22-1,0.32s-0.76.22-1.14,0.32l-1.14.26-1.15.2c-0.38.05-.75,0.1-1.14,0.13s-0.74.07-1.12,0.08-0.72,0-1.08,0-0.7,0-1.05-.05l-0.5-.06a17.45,17.45,0,0,1,0-3.84M27,19c0.14,0.2.28,0.4,0.4,0.61s0.38,0.63.55,0.94,0.33,0.61.48,0.93,0.23,0.53.34,0.79l-0.22.18c-0.27.2-.57,0.41-0.89,0.62s-0.63.39-1,.58-0.66.36-1,.53A28.08,28.08,0,0,0,27,19M23,8.49a2.79,2.79,0,0,1,1.57,1.62,13,13,0,0,1,.91,5.13l0,0c-0.29-.29-0.58-0.58-0.88-0.86s-0.61-.56-0.93-0.82-0.64-.53-1-0.79-0.66-.48-1-0.71-0.68-.45-1-0.65-0.7-.4-1.05-0.58-0.41-.2-0.62-0.29a10.33,10.33,0,0,1,1.43-1.28h0a3.55,3.55,0,0,1,2.53-.75l0.07,0M19.67,8.2h0a11.31,11.31,0,0,0-2,1.8l-0.25-.09c-0.33-.11-0.66-0.21-1-0.29s-0.64-.14-0.93-0.18a6.33,6.33,0,0,0-.8-0.07,11.75,11.75,0,0,1,5-1.23l-0.13.07m11,16.75c0-.31-0.08-0.64-0.15-1s-0.15-.64-0.25-1c0-.1-0.07-0.2-0.1-0.3,0.23-.21.46-0.43,0.68-0.65s0.44-.48.62-0.72,0.26-.36.38-0.53a12.09,12.09,0,0,1-1.18,4.42c0-.09,0-0.18,0-0.26"/><path d="M17.44,21.41A1.43,1.43,0,1,0,16,20a1.43,1.43,0,0,0,1.43,1.43"/><path d="M100.54,6A13.93,13.93,0,1,0,114.46,19.9,13.93,13.93,0,0,0,100.54,6Zm0,22.1a8.17,8.17,0,1,1,8.17-8.17A8.17,8.17,0,0,1,100.54,28.07Z"/><path d="M55.17,6.45H45.8a0.58,0.58,0,0,0-.57.57V32.71a0.58,0.58,0,0,0,.57.57h4.76a0.58,0.58,0,0,0,.57-0.57V25.24H54.6c6,0,10.85-3.22,10.85-9.43V15.73C65.44,10.25,61.57,6.45,55.17,6.45Zm4.29,9.47c0,2.3-1.73,4.06-4.68,4.06H51.13v-8.2h3.55c3,0,4.79,1.42,4.79,4.06v0.08Z"/><path d="M117.61,30.23a0.58,0.58,0,0,1-.06-0.69"/><path d="M117.56,29.52v0L118,29Z"/><path d="M117.71,30.32h0l-0.12-.09Z"/><path d="M129.22,17.23c-4.64-1.19-5.79-1.76-5.79-3.53V13.62c0-1.3,1.19-2.34,3.45-2.34a11.92,11.92,0,0,1,6.23,1.91h0a0.58,0.58,0,0,0,.8-0.13l2.41-3.39a0.57,0.57,0,0,0-.17-0.74h0A15.57,15.57,0,0,0,127,6.07c-5.48,0-9.39,3.22-9.39,8.09v0.08c0,5.33,3.49,6.82,8.89,8.2,4.48,1.15,5.41,1.92,5.41,3.41v0.08c0,1.57-1.46,2.53-3.87,2.53a11.34,11.34,0,0,1-6.49-2.13L121.09,26l-0.29-.2a0.58,0.58,0,0,0-.8.14l-2.49,3.56a0.58,0.58,0,0,0,.06.69l0.12,0.09a17.13,17.13,0,0,0,10.19,3.35c5.79,0,9.85-3,9.85-8.32V25.27C137.73,20.6,134.66,18.64,129.22,17.23Z"/><path d="M86.15,28.49s0,0,0,0v4.31s0,0,0,0V28.49Z"/><path d="M85.59,27.92H75V7a0.58,0.58,0,0,0-.57-0.57H69.7a0.57,0.57,0,0,0-.57.57V32.71a0.57,0.57,0,0,0,.57.57H85.58a0.57,0.57,0,0,0,.57-0.53V28.45A0.57,0.57,0,0,0,85.59,27.92Z"/></svg>